<svg width="200" height="200" viewBox="0 0 200 200" fill="none" xmlns="http://www.w3.org/2000/svg">
  <rect x="40" y="50" width="120" height="110" rx="8" fill="#3B82F6" />
  <rect x="50" y="70" width="100" height="80" rx="4" fill="#1E3A8A" />
  <rect x="40" y="40" width="120" height="20" rx="8" fill="#2563EB" />
  <rect x="60" y="30" width="10" height="20" rx="2" fill="#60A5FA" />
  <rect x="130" y="30" width="10" height="20" rx="2" fill="#60A5FA" />
  
  <!-- Calendar grid -->
  <rect x="60" y="80" width="20" height="20" rx="2" fill="#60A5FA" />
  <rect x="90" y="80" width="20" height="20" rx="2" fill="#60A5FA" />
  <rect x="120" y="80" width="20" height="20" rx="2" fill="#FBBF24" />
  
  <rect x="60" y="110" width="20" height="20" rx="2" fill="#60A5FA" />
  <rect x="90" y="110" width="20" height="20" rx="2" fill="#EC4899" />
  <rect x="120" y="110" width="20" height="20" rx="2" fill="#60A5FA" />
  
  <!-- People circles -->
  <circle cx="60" cy="160" r="15" fill="#F472B6" />
  <circle cx="100" cy="160" r="15" fill="#FBBF24" />
  <circle cx="140" cy="160" r="15" fill="#34D399" />
  
  <!-- Connection lines -->
  <line x1="60" y1="145" x2="60" y2="130" stroke="#F472B6" stroke-width="2" />
  <line x1="100" y1="145" x2="100" y2="130" stroke="#FBBF24" stroke-width="2" />
  <line x1="140" y1="145" x2="120" y2="130" stroke="#34D399" stroke-width="2" />
</svg> 