<svg width="200" height="200" viewBox="0 0 200 200" fill="none" xmlns="http://www.w3.org/2000/svg">
  <!-- Photo frames -->
  <rect x="40" y="40" width="70" height="70" rx="8" fill="#EC4899" />
  <rect x="45" y="45" width="60" height="60" rx="4" fill="#DB2777" />
  <circle cx="60" cy="60" r="8" fill="#FBCFE8" />
  <path d="M45 105L70 80L105 115" stroke="#FBCFE8" stroke-width="2" />
  
  <rect x="120" y="40" width="50" height="50" rx="8" fill="#8B5CF6" />
  <rect x="125" y="45" width="40" height="40" rx="4" fill="#7C3AED" />
  <circle cx="135" cy="55" r="6" fill="#DDD6FE" />
  <path d="M125 85L145 65L165 85" stroke="#DDD6FE" stroke-width="2" />
  
  <rect x="120" y="100" width="50" height="70" rx="8" fill="#3B82F6" />
  <rect x="125" y="105" width="40" height="60" rx="4" fill="#2563EB" />
  <circle cx="135" cy="115" r="6" fill="#BFDBFE" />
  <path d="M125 165L145 145L165 165" stroke="#BFDBFE" stroke-width="2" />
  
  <rect x="40" y="120" width="70" height="50" rx="8" fill="#10B981" />
  <rect x="45" y="125" width="60" height="40" rx="4" fill="#059669" />
  <circle cx="60" cy="135" r="6" fill="#A7F3D0" />
  <path d="M45 165L65 145L105 165" stroke="#A7F3D0" stroke-width="2" />
  
  <!-- People circles -->
  <circle cx="60" cy="180" r="12" fill="#F472B6" />
  <circle cx="90" cy="180" r="12" fill="#FBBF24" />
  <circle cx="120" cy="180" r="12" fill="#34D399" />
  <circle cx="150" cy="180" r="12" fill="#60A5FA" />
</svg> 