<svg width="200" height="200" viewBox="0 0 200 200" fill="none" xmlns="http://www.w3.org/2000/svg">
  <rect x="50" y="40" width="100" height="140" rx="8" fill="#6B7280" />
  <rect x="60" y="60" width="80" height="100" rx="4" fill="#374151" />
  
  <!-- Task items -->
  <rect x="65" y="70" width="70" height="20" rx="4" fill="#9CA3AF" />
  <rect x="65" y="70" width="20" height="20" rx="4" fill="#10B981" />
  <path d="M70 80L75 85L85 75" stroke="white" stroke-width="2" stroke-linecap="round" stroke-linejoin="round" />
  
  <rect x="65" y="100" width="70" height="20" rx="4" fill="#9CA3AF" />
  <rect x="65" y="100" width="20" height="20" rx="4" fill="#10B981" />
  <path d="M70 110L75 115L85 105" stroke="white" stroke-width="2" stroke-linecap="round" stroke-linejoin="round" />
  
  <rect x="65" y="130" width="70" height="20" rx="4" fill="#9CA3AF" />
  <rect x="65" y="130" width="20" height="20" rx="4" fill="#10B981" />
  <path d="M70 140L75 145L85 135" stroke="white" stroke-width="2" stroke-linecap="round" stroke-linejoin="round" />
  
  <!-- People circles -->
  <circle cx="60" cy="180" r="15" fill="#F472B6" />
  <circle cx="100" cy="180" r="15" fill="#FBBF24" />
  <circle cx="140" cy="180" r="15" fill="#34D399" />
  
  <!-- Connection lines -->
  <line x1="60" y1="165" x2="70" y2="150" stroke="#F472B6" stroke-width="2" />
  <line x1="100" y1="165" x2="100" y2="150" stroke="#FBBF24" stroke-width="2" />
  <line x1="140" y1="165" x2="130" y2="150" stroke="#34D399" stroke-width="2" />
</svg> 